<?xml version="1.0" encoding="utf-8"?>
<!-- Generator: Adobe Illustrator 27.7.0, SVG Export Plug-In . SVG Version: 6.00 Build 0)  -->
<svg version="1.1" id="Layer_1" xmlns="http://www.w3.org/2000/svg" xmlns:xlink="http://www.w3.org/1999/xlink" x="0px" y="0px"
	 viewBox="0 0 48 48" style="enable-background:new 0 0 48 48;" xml:space="preserve">
<style type="text/css">
	.st0{fill:#0078D3;}
</style>
<path class="st0" d="M9.5,43c-1.2,0-2.3-0.4-3.2-1.3c-0.9-0.9-1.3-2-1.3-3.2v-29c0-1.3,0.4-2.3,1.3-3.2c0.9-0.9,2-1.4,3.2-1.4h13.4
	v4.6H9.5v29h29V25.1h4.6v13.4c0,1.2-0.5,2.3-1.4,3.2c-0.9,0.9-2,1.3-3.2,1.3H9.5z M20.3,30.9l-3.2-3.2L35.4,9.5h-9.5V4.9h17.3v17.2
	h-4.6v-9.4L20.3,30.9z"/>
</svg>
