<?xml version="1.0" encoding="UTF-8"?>
<svg id="Layer_2" data-name="Layer 2" xmlns="http://www.w3.org/2000/svg" viewBox="0 0 729.36 68">
  <defs>
    <style>
      .cls-1 {
        fill: none;
        stroke: #3c5164;
        stroke-miterlimit: 10;
        stroke-width: 2.75px;
      }

      .cls-2 {
        fill: #23487c;
      }

      .cls-3 {
        fill: #3c5164;
      }
    </style>
  </defs>
  <g id="Layer_1-2" data-name="Layer 1">
    <g>
      <line class="cls-1" x1="416.61" x2="416.61" y2="68"/>
      <g>
        <g>
          <path class="cls-2" d="M348.83,50.27c-.76-.76-1.68-1.14-2.76-1.14s-2,.38-2.76,1.14c-.76.76-1.14,1.68-1.14,2.76s.38,2,1.14,2.76c.76.76,1.68,1.14,2.76,1.14s2-.38,2.76-1.14c.76-.76,1.14-1.68,1.14-2.76s-.38-2-1.14-2.76ZM348.46,55.44c-.66.67-1.46,1-2.39,1s-1.73-.33-2.39-1c-.66-.67-.99-1.47-.99-2.4s.33-1.73.99-2.4c.66-.67,1.46-1,2.39-1s1.73.33,2.39,1c.66.67.99,1.47.99,2.4s-.33,1.73-.99,2.4Z"/>
          <path class="cls-2" d="M346.63,53.08c.3-.11.53-.27.7-.46.17-.19.26-.44.26-.73,0-.22-.04-.4-.13-.55-.09-.15-.23-.27-.42-.37-.18-.09-.36-.15-.54-.18-.18-.02-.42-.04-.7-.04h-1.41v4.13h.74v-1.6h.73l1.49,1.6h1.01l-1.73-1.81ZM346.19,52.67c-.14.03-.3.04-.48.04h-.57v-1.4h.67c.16,0,.29,0,.4.02.11.02.2.05.3.1.1.05.17.12.21.21s.06.18.06.29c0,.14-.02.25-.06.34-.04.09-.1.17-.2.25-.09.07-.2.12-.33.15Z"/>
        </g>
        <g>
          <path class="cls-2" d="M56,34.28h-29.19v4.47h21.49c.25,1.33.37,2.19.37,2.58,0,5.03-.95,8.17-2.83,9.35-1.9,1.19-6.95,1.79-15.04,1.79-10.58,0-17.17-.64-19.6-1.89-2.4-1.24-3.61-4.64-3.61-10.12l-.05-6.3.1-5.85c0-5.39,1.09-8.8,3.25-10.14,2.18-1.35,7.71-2.03,16.45-2.03,9.47,0,15.4.43,17.63,1.27,2.19.83,3.3,3.03,3.3,6.54v1.23h7.74v-1.82c0-4.92-1.71-8.14-5.08-9.57-3.33-1.41-10.82-2.13-22.26-2.13s-19.12,1.09-22.9,3.25C1.98,17.09.05,21.51.05,28.06l-.05,3.91.05,6.49c0,7.79,1.73,12.87,5.16,15.12,3.4,2.23,11.15,3.37,23.03,3.37,12.56,0,20.45-.96,23.44-2.85,3.01-1.9,4.54-6.9,4.54-14.86,0-2.06-.07-3.68-.2-4.83v-.12Z"/>
          <polygon class="cls-2" points="63.44 56.49 107.09 56.49 107.09 52.02 71.33 52.02 71.33 35.82 105.61 35.82 105.61 31.35 71.33 31.35 71.33 16.6 107.09 16.6 107.09 12.13 63.44 12.13 63.44 56.49"/>
          <path class="cls-2" d="M165.82,15.35c-3.21-2.44-11.29-3.68-24.02-3.68-11.02,0-18.65,1.09-22.69,3.23-4.07,2.16-6.13,6.23-6.13,12.12l-.1,4.17v3.1c0,10.14,1.59,16.52,4.73,18.97,3.13,2.44,11.27,3.68,24.2,3.68s21.15-1.25,24.22-3.71c3.09-2.47,4.65-9.04,4.65-19.52,0-9.73-1.63-15.91-4.85-18.36ZM123.09,18.44c1.78-1.52,8.06-2.29,18.66-2.29,9.23,0,15.17.66,17.65,1.95,2.44,1.28,3.69,4.36,3.69,9.15l.05,4.17v2.87c0,9.02-.9,14.37-2.67,15.89-1.78,1.52-8.08,2.29-18.71,2.29s-16.88-.77-18.66-2.29c-1.77-1.52-2.67-6.86-2.67-15.89s.9-14.34,2.67-15.85Z"/>
          <polygon class="cls-2" points="225.46 12.13 173.74 12.13 173.74 17.02 195.75 17.02 195.75 56.49 203.64 56.49 203.64 17.02 225.46 17.02 225.46 12.13"/>
          <path class="cls-2" d="M253.32,12.13h-10.84l-24.88,44.36h8.37l5.2-9.33h34.02l5.24,9.33h8.28l-25.34-44.29-.04-.07ZM262.81,43.13h-29.32l14.56-26.52,14.76,26.52Z"/>
          <path class="cls-2" d="M327.51,33.23c5.54-1.36,8.34-4.49,8.34-9.3s-1.31-8.04-3.9-9.55c-2.57-1.49-8.06-2.25-16.32-2.25h-30.01v44.36h33.23c6.98,0,11.96-.96,14.79-2.86,2.85-1.91,4.29-5.27,4.29-9.96,0-5.72-3.5-9.23-10.42-10.43ZM325.63,30.04c-1.8.98-5.92,1.47-12.23,1.47h-19.9v-14.91h21.97c5.39,0,8.92.43,10.49,1.29,1.54.84,2.33,2.74,2.33,5.65,0,3.35-.9,5.54-2.67,6.5ZM293.51,35.98h19.5c7.99,0,12.94.45,14.73,1.33,1.76.87,2.65,3.27,2.65,7.13,0,3.1-.88,5.15-2.62,6.1-1.77.96-5.58,1.45-11.34,1.45l-6.87.03h-16.04v-16.04Z"/>
        </g>
      </g>
      <g>
        <path class="cls-3" d="M509.11,43.4h-17.87l-4.01,11.16h-5.8l16.29-42.66h4.92l16.32,42.66h-5.77l-4.07-11.16ZM492.94,38.8h14.5l-7.27-19.95-7.24,19.95Z"/>
        <path class="cls-3" d="M536.56,50.72c1.93,0,3.62-.59,5.07-1.76,1.45-1.17,2.25-2.64,2.4-4.39h5.13c-.1,1.82-.72,3.54-1.88,5.19-1.15,1.64-2.69,2.95-4.61,3.93-1.92.98-3.96,1.46-6.11,1.46-4.32,0-7.75-1.44-10.3-4.32s-3.82-6.82-3.82-11.82v-.91c0-3.09.57-5.83,1.7-8.23,1.13-2.4,2.76-4.27,4.88-5.6,2.12-1.33,4.62-1.99,7.51-1.99,3.55,0,6.51,1.07,8.86,3.19,2.35,2.13,3.61,4.89,3.76,8.29h-5.13c-.16-2.05-.93-3.74-2.33-5.05-1.4-1.32-3.12-1.98-5.17-1.98-2.75,0-4.89.99-6.4,2.97-1.51,1.98-2.27,4.85-2.27,8.6v1.03c0,3.65.75,6.46,2.26,8.44,1.5,1.97,3.65,2.96,6.45,2.96Z"/>
        <path class="cls-3" d="M574.83,54.56c-.31-.62-.57-1.74-.76-3.34-2.52,2.62-5.53,3.93-9.02,3.93-3.13,0-5.69-.88-7.69-2.65-2-1.77-3-4.01-3-6.72,0-3.3,1.25-5.86,3.76-7.69,2.51-1.83,6.04-2.74,10.59-2.74h5.27v-2.49c0-1.89-.57-3.4-1.7-4.53-1.13-1.12-2.8-1.68-5.01-1.68-1.93,0-3.56.49-4.86,1.46-1.31.98-1.96,2.16-1.96,3.54h-5.45c0-1.58.56-3.11,1.68-4.58,1.12-1.47,2.65-2.64,4.57-3.5,1.92-.86,4.04-1.29,6.34-1.29,3.65,0,6.51.91,8.58,2.74,2.07,1.83,3.14,4.34,3.22,7.54v14.59c0,2.91.37,5.22,1.11,6.94v.47h-5.68ZM565.83,50.43c1.7,0,3.31-.44,4.83-1.32s2.63-2.02,3.31-3.43v-6.5h-4.25c-6.64,0-9.96,1.94-9.96,5.83,0,1.7.57,3.03,1.7,3.98,1.13.96,2.59,1.44,4.37,1.44Z"/>
        <path class="cls-3" d="M586.27,38.45c0-4.86,1.15-8.77,3.46-11.73s5.32-4.44,9.05-4.44,6.65,1.27,8.82,3.81V9.56h5.42v45h-4.98l-.26-3.4c-2.17,2.66-5.19,3.98-9.05,3.98s-6.67-1.5-8.98-4.51c-2.31-3.01-3.47-6.93-3.47-11.78v-.41ZM591.69,39.06c0,3.59.74,6.41,2.23,8.44,1.48,2.03,3.54,3.05,6.15,3.05,3.44,0,5.95-1.54,7.53-4.63v-14.56c-1.62-2.99-4.11-4.48-7.47-4.48-2.66,0-4.73,1.03-6.21,3.08s-2.23,5.09-2.23,9.11Z"/>
        <path class="cls-3" d="M634.58,55.15c-4.3,0-7.79-1.41-10.49-4.23s-4.04-6.6-4.04-11.32v-1c0-3.14.6-5.95,1.8-8.42,1.2-2.47,2.88-4.4,5.04-5.8,2.16-1.4,4.5-2.09,7.02-2.09,4.12,0,7.32,1.36,9.61,4.07,2.29,2.71,3.43,6.6,3.43,11.66v2.26h-21.47c.08,3.12.99,5.65,2.74,7.57,1.75,1.92,3.97,2.89,6.67,2.89,1.91,0,3.54-.39,4.86-1.17,1.33-.78,2.49-1.82,3.49-3.11l3.31,2.58c-2.66,4.08-6.64,6.12-11.95,6.12ZM633.91,26.73c-2.19,0-4.02.8-5.51,2.39-1.48,1.59-2.4,3.82-2.75,6.69h15.88v-.41c-.16-2.75-.9-4.89-2.23-6.4-1.33-1.51-3.12-2.27-5.39-2.27Z"/>
        <path class="cls-3" d="M658.32,22.86l.15,3.52c2.32-2.73,5.46-4.1,9.4-4.1,4.43,0,7.45,1.7,9.05,5.1,1.05-1.52,2.43-2.75,4.12-3.69s3.69-1.41,5.99-1.41c6.95,0,10.49,3.68,10.61,11.04v21.24h-5.42v-20.92c0-2.27-.52-3.96-1.55-5.08-1.04-1.12-2.77-1.68-5.21-1.68-2.01,0-3.68.6-5.01,1.8s-2.1,2.82-2.31,4.85v21.04h-5.45v-20.77c0-4.61-2.26-6.91-6.77-6.91-3.55,0-5.99,1.51-7.29,4.54v23.14h-5.42v-31.7h5.13Z"/>
        <path class="cls-3" d="M716.18,46.62l7.38-23.76h5.8l-12.74,36.59c-1.97,5.27-5.11,7.91-9.4,7.91l-1.03-.09-2.02-.38v-4.39l1.46.12c1.84,0,3.27-.37,4.29-1.11s1.87-2.1,2.53-4.07l1.2-3.22-11.31-31.35h5.92l7.91,23.76Z"/>
      </g>
    </g>
  </g>
</svg>